<svg width="838" height="222" viewBox="0 0 838 222" fill="none" xmlns="http://www.w3.org/2000/svg">
<path d="M31.9417 66.2147C31.9417 66.2147 52.5449 39.4401 112.55 35.1675C172.556 30.895 146.731 39.7249 146.731 39.7249C146.731 39.7249 129.261 46.9408 120.621 66.4046C111.981 85.8684 31.9417 66.2147 31.9417 66.2147Z" fill="#BB1B18"/>
<path d="M120.315 154.785C120.315 154.785 99.7122 181.56 39.7066 185.833C-20.299 190.105 5.5262 181.275 5.5262 181.275C5.5262 181.275 22.9962 174.059 31.6362 154.595C40.2763 135.132 120.315 154.785 120.315 154.785Z" fill="#DD221F"/>
<path fill-rule="evenodd" clip-rule="evenodd" d="M138.745 110.5C138.745 145.131 110.732 173.206 76.1749 173.206C41.6182 173.206 13.6044 145.131 13.6044 110.5C13.6044 75.8677 41.6182 47.793 76.1749 47.793C110.732 47.793 138.745 75.8677 138.745 110.5ZM52.6993 110.515C52.6993 123.496 63.2226 134.019 76.2037 134.019C89.1849 134.019 99.7082 123.496 99.7082 110.515C99.7082 97.5336 89.1849 87.0103 76.2037 87.0103C63.2226 87.0103 52.6993 97.5336 52.6993 110.515Z" fill="#DD221F"/>
<path d="M210.284 64.9091L232.784 135.636H233.648L256.193 64.9091H278.011L245.92 158H220.557L188.42 64.9091H210.284ZM369.511 111.455C369.511 121.606 367.587 130.242 363.739 137.364C359.92 144.485 354.708 149.924 348.102 153.682C341.527 157.409 334.133 159.273 325.92 159.273C317.648 159.273 310.223 157.394 303.648 153.636C297.072 149.879 291.875 144.439 288.057 137.318C284.239 130.197 282.33 121.576 282.33 111.455C282.33 101.303 284.239 92.6667 288.057 85.5455C291.875 78.4242 297.072 73 303.648 69.2727C310.223 65.5151 317.648 63.6364 325.92 63.6364C334.133 63.6364 341.527 65.5151 348.102 69.2727C354.708 73 359.92 78.4242 363.739 85.5455C367.587 92.6667 369.511 101.303 369.511 111.455ZM349.557 111.455C349.557 104.879 348.572 99.3333 346.602 94.8182C344.663 90.303 341.92 86.8788 338.375 84.5455C334.83 82.2121 330.678 81.0455 325.92 81.0455C321.163 81.0455 317.011 82.2121 313.466 84.5455C309.92 86.8788 307.163 90.303 305.193 94.8182C303.254 99.3333 302.284 104.879 302.284 111.455C302.284 118.03 303.254 123.576 305.193 128.091C307.163 132.606 309.92 136.03 313.466 138.364C317.011 140.697 321.163 141.864 325.92 141.864C330.678 141.864 334.83 140.697 338.375 138.364C341.92 136.03 344.663 132.606 346.602 128.091C348.572 123.576 349.557 118.03 349.557 111.455ZM384.091 158V64.9091H420.818C427.848 64.9091 433.848 66.1667 438.818 68.6818C443.818 71.1667 447.621 74.697 450.227 79.2727C452.864 83.8182 454.182 89.1667 454.182 95.3182C454.182 101.5 452.848 106.818 450.182 111.273C447.515 115.697 443.652 119.091 438.591 121.455C433.561 123.818 427.47 125 420.318 125H395.727V109.182H417.136C420.894 109.182 424.015 108.667 426.5 107.636C428.985 106.606 430.833 105.061 432.045 103C433.288 100.939 433.909 98.3788 433.909 95.3182C433.909 92.2273 433.288 89.6212 432.045 87.5C430.833 85.3788 428.97 83.7727 426.455 82.6818C423.97 81.5606 420.833 81 417.045 81H403.773V158H384.091ZM434.364 115.636L457.5 158H435.773L413.136 115.636H434.364ZM464.545 81.1364V64.9091H541V81.1364H512.5V158H493.045V81.1364H464.545ZM553.591 158V64.9091H616.318V81.1364H573.273V103.318H613.091V119.545H573.273V141.773H616.5V158H553.591ZM714.102 97.5H694.193C693.83 94.9242 693.087 92.6364 691.966 90.6364C690.845 88.6061 689.405 86.8788 687.648 85.4545C685.89 84.0303 683.86 82.9394 681.557 82.1818C679.284 81.4242 676.814 81.0455 674.148 81.0455C669.33 81.0455 665.133 82.2424 661.557 84.6364C657.981 87 655.208 90.4545 653.239 95C651.269 99.5151 650.284 105 650.284 111.455C650.284 118.091 651.269 123.667 653.239 128.182C655.239 132.697 658.027 136.106 661.602 138.409C665.178 140.712 669.314 141.864 674.011 141.864C676.648 141.864 679.087 141.515 681.33 140.818C683.602 140.121 685.617 139.106 687.375 137.773C689.133 136.409 690.587 134.758 691.739 132.818C692.92 130.879 693.739 128.667 694.193 126.182L714.102 126.273C713.587 130.545 712.299 134.667 710.239 138.636C708.208 142.576 705.466 146.106 702.011 149.227C698.587 152.318 694.496 154.773 689.739 156.591C685.011 158.379 679.663 159.273 673.693 159.273C665.39 159.273 657.966 157.394 651.42 153.636C644.905 149.879 639.754 144.439 635.966 137.318C632.208 130.197 630.33 121.576 630.33 111.455C630.33 101.303 632.239 92.6667 636.057 85.5455C639.875 78.4242 645.057 73 651.602 69.2727C658.148 65.5151 665.511 63.6364 673.693 63.6364C679.087 63.6364 684.087 64.3939 688.693 65.9091C693.33 67.4242 697.436 69.6364 701.011 72.5454C704.587 75.4242 707.496 78.9545 709.739 83.1364C712.011 87.3182 713.466 92.1061 714.102 97.5ZM728.216 158V64.9091H747.898V103.318H787.852V64.9091H807.489V158H787.852V119.545H747.898V158H728.216Z" fill="white"/>
</svg>
